<?xml version="1.0" encoding="UTF-8" standalone="no"?><!DOCTYPE svg PUBLIC "-//W3C//DTD SVG 1.1//EN" "http://www.w3.org/Graphics/SVG/1.1/DTD/svg11.dtd"><svg width="100%" height="100%" viewBox="0 0 256 256" version="1.1" xmlns="http://www.w3.org/2000/svg" xmlns:xlink="http://www.w3.org/1999/xlink" xml:space="preserve" xmlns:serif="http://www.serif.com/" style="fill-rule:evenodd;clip-rule:evenodd;stroke-linejoin:round;stroke-miterlimit:2;"><path d="M82.156,193.707l-28.584,20.767l-2.748,-3.782l-2.23,-49.484l-21.389,15.54l-3.161,-4.352l27.275,-19.817l2.749,3.783l2.209,49.455l22.697,-16.49l3.182,4.38Z" style="fill-rule:nonzero;"/><path d="M136.463,122.54l-51.993,27.646l-3.659,-6.881l7.797,-82.187l-38.905,20.686l-4.209,-7.916l49.614,-26.38l3.659,6.881l-7.824,82.135l41.284,-21.951l4.236,7.967Z" style="fill-rule:nonzero;"/><path d="M234.333,188.756l-89.415,12.566l-1.663,-11.833l54.336,-114.331l-66.905,9.403l-1.913,-13.612l85.322,-11.992l1.663,11.833l-54.349,114.242l70.998,-9.978l1.926,13.702Z" style="fill-rule:nonzero;"/></svg>