<svg viewBox="0 0 512 512" xmlns="http://www.w3.org/2000/svg" xml:space="preserve" style="fill-rule:evenodd;clip-rule:evenodd;stroke-linejoin:round;stroke-miterlimit:2"><path d="M.501 0H.077v-.714h.424v.155H.27v.112h.214v.155H.27v.135h.231V0Z" style="fill:#8b5cf6;fill-rule:nonzero" transform="matrix(471.888 0 0 291.3708 -.406 240)"/><path d="M.077-.714h.249c.097 0 .169.015.216.043a.148.148 0 0 1 .071.135c0 .04-.01.074-.031.102a.131.131 0 0 1-.081.055v.005a.165.165 0 0 1 .096.059c.02.027.03.062.03.106a.18.18 0 0 1-.073.153A.322.322 0 0 1 .355 0H.077v-.714ZM.27-.44h.058a.106.106 0 0 0 .064-.017c.015-.011.023-.028.023-.051 0-.04-.03-.06-.091-.06H.27v.128Zm0 .141v.15h.068c.06 0 .09-.025.09-.076A.066.066 0 0 0 .404-.28a.114.114 0 0 0-.07-.019H.27Z" style="fill:#8b5cf6;fill-rule:nonzero" transform="matrix(392.868 0 0 291.3708 237.691 240)"/><path d="M.501 0H.077v-.714h.424v.155H.27v.112h.214v.155H.27v.135h.231V0Z" style="fill:#f59e0b;fill-rule:nonzero" transform="matrix(471.88977 0 0 291.37082 -.406 480)"/><path d="M.077-.714h.249c.097 0 .169.015.216.043a.148.148 0 0 1 .071.135c0 .04-.01.074-.031.102a.131.131 0 0 1-.081.055v.005a.165.165 0 0 1 .096.059c.02.027.03.062.03.106a.18.18 0 0 1-.073.153A.322.322 0 0 1 .355 0H.077v-.714ZM.27-.44h.058a.106.106 0 0 0 .064-.017c.015-.011.023-.028.023-.051 0-.04-.03-.06-.091-.06H.27v.128Zm0 .141v.15h.068c.06 0 .09-.025.09-.076A.066.066 0 0 0 .404-.28a.114.114 0 0 0-.07-.019H.27Z" style="fill:#f59e0b;fill-rule:nonzero" transform="matrix(392.86637 0 0 291.37082 237.69 480)"/></svg>